HIERARCHY
ROOT Hips
{
	OFFSET -3.958830 18.904000 13.208200
	CHANNELS 6 Xposition Yposition Zposition Zrotation Yrotation Xrotation 
	JOINT LHipJoint
	{
		OFFSET 0.000000 0.000000 0.000000
		CHANNELS 3 Zrotation Yrotation Xrotation
		JOINT LeftUpLeg
		{
			OFFSET 1.800000 -1.400000 0.085000
			CHANNELS 3 Zrotation Yrotation Xrotation
			JOINT LeftLeg
			{
				OFFSET 2.215000 -6.000000 0.000000
				CHANNELS 3 Zrotation Yrotation Xrotation
				JOINT LeftFoot
				{
					OFFSET 2.500000 -6.900000 0.000000
					CHANNELS 3 Zrotation Yrotation Xrotation
					JOINT LeftToeBase
					{
						OFFSET 0.200000 -0.500000 1.950000
						CHANNELS 3 Zrotation Yrotation Xrotation
						End Site
						{
							OFFSET 0.000000 0.000000 0.000000
						}
					}
				}
			}
		}
	}
	JOINT RHipJoint
	{
		OFFSET 0.000000 0.000000 0.000000
		CHANNELS 3 Zrotation Yrotation Xrotation
		JOINT RightUpLeg
		{
			OFFSET -1.800000 -1.400000 0.085000
			CHANNELS 3 Zrotation Yrotation Xrotation
			JOINT RightLeg
			{
				OFFSET -2.215000 -6.000000 0.000000
				CHANNELS 3 Zrotation Yrotation Xrotation
				JOINT RightFoot
				{
					OFFSET -2.500000 -6.900000 0.000000
					CHANNELS 3 Zrotation Yrotation Xrotation
					JOINT RightToeBase
					{
						OFFSET -0.200000 -0.500000 1.950000
						CHANNELS 3 Zrotation Yrotation Xrotation
						End Site
						{
							OFFSET 0.000000 0.000000 0.000000
						}
					}
				}
			}
		}
	}
	JOINT LowerBack
	{
		OFFSET 0.000000 0.000000 0.000000
		CHANNELS 3 Zrotation Yrotation Xrotation
		JOINT Spine
		{
			OFFSET -0.087000 1.940000 -0.288900
			CHANNELS 3 Zrotation Yrotation Xrotation
			JOINT Spine1
			{
				OFFSET 0.000000 1.950000 0.060000
				CHANNELS 3 Zrotation Yrotation Xrotation
				JOINT Neck
				{
					OFFSET 0.000000 0.000000 0.000000
					CHANNELS 3 Zrotation Yrotation Xrotation
					JOINT Neck1
					{
						OFFSET 0.000000 1.600000 0.340000
						CHANNELS 3 Zrotation Yrotation Xrotation
						JOINT Head
						{
							OFFSET 0.000000 1.667000 -0.240000
							CHANNELS 3 Zrotation Yrotation Xrotation
							End Site
							{
								OFFSET 0.000000 0.000000 0.000000
							}
						}
					}
				}
				JOINT LeftShoulder
				{
					OFFSET 0.000000 0.000000 0.000000
					CHANNELS 3 Zrotation Yrotation Xrotation
					JOINT LeftArm
					{
						OFFSET 2.700000 1.550000 -0.730000
						CHANNELS 3 Zrotation Yrotation Xrotation
						JOINT LeftForeArm
						{
							OFFSET 5.450000 0.000000 0.000000
							CHANNELS 3 Zrotation Yrotation Xrotation
							JOINT LeftHand
							{
								OFFSET 3.450000 0.000000 0.000000
								CHANNELS 3 Zrotation Yrotation Xrotation
								JOINT LeftHandIndex1
								{
									OFFSET 0.750000 0.000000 0.000000
									CHANNELS 3 Zrotation Yrotation Xrotation
									End Site
									{
										OFFSET 0.000000 0.000000 0.000000
									}
								}
							}
						}
					}
				}
				JOINT RightShoulder
				{
					OFFSET 0.000000 0.000000 0.000000
					CHANNELS 3 Zrotation Yrotation Xrotation
					JOINT RightArm
					{
						OFFSET -2.700000 1.550000 -0.730000
						CHANNELS 3 Zrotation Yrotation Xrotation
						JOINT RightForeArm
						{
							OFFSET -5.450000 0.000000 0.000000
							CHANNELS 3 Zrotation Yrotation Xrotation
							JOINT RightHand
							{
								OFFSET -3.450000 0.000000 0.000000
								CHANNELS 3 Zrotation Yrotation Xrotation
								JOINT RightHandIndex1
								{
									OFFSET -0.750000 0.000000 0.000000
									CHANNELS 3 Zrotation Yrotation Xrotation
									End Site
									{
										OFFSET 0.000000 0.000000 0.000000
									}
								}
							}
						}
					}
				}
			}
		}
	}
}
MOTION
Frames: 9
Frame Time: 0.016667
-0.036760 17.472300 -1.534040 -3.923771 23.355667 7.853456 -15.066296 12.604365 2.355900 -1.231285 -1.706531 -15.514898 -0.585887 4.485112 17.654063 -0.957929 4.465617 3.597236 -0.561910 -0.914240 -0.851460 18.502917 -10.947075 3.158120 -2.082479 3.219146 -24.042568 9.048380 -3.789763 6.197407 0.621112 -3.237593 3.622289 -0.086980 1.630040 0.165430 -4.465942 0.215600 -6.556833 10.500881 0.376424 0.960233 -3.935114 -0.269719 12.131957 2.043180 1.327174 -6.594779 2.092290 -4.560666 25.459778 -5.216800 -7.824100 12.126100 -3.470637 9.700766 0.943041 -35.835582 5.484025 -2.151886 -58.752134 -55.892475 29.816848 -4.544774 3.702855 -0.143130 1.071960 -1.107790 0.314280 -0.018335 -10.423578 4.770616 37.566416 -1.651962 4.228525 152.323983 52.875747 114.941578 1.396039 -2.331527 -0.791430 0.667740 0.735650 0.090750 
-0.110300 17.419930 -1.550470 -4.667264 22.177899 7.700945 -15.047364 12.533237 2.232611 -0.969183 -1.436095 -14.280863 -0.430017 4.385442 16.951996 -0.959166 4.446603 3.602358 -0.500480 -0.818990 -0.818450 18.551021 -10.789794 3.302124 -2.552696 3.259049 -23.148800 9.908850 -3.065935 1.106360 0.569397 -3.290344 3.611619 -0.029170 1.618650 0.186490 -4.517837 0.214085 -6.587540 11.336667 0.491268 0.400969 -3.540284 -0.346966 12.882684 1.856332 1.373287 -6.608321 2.135486 -4.218140 25.458365 -5.512200 -7.217810 11.403100 -3.205463 9.518631 1.146438 -33.185924 5.327732 -0.739822 -66.615986 -57.683061 35.878840 -4.561614 3.788285 -0.171170 1.091140 -1.090750 0.328000 0.142025 -10.495865 4.598538 36.086887 -1.596929 3.989743 160.345997 54.243452 130.818087 1.326869 -2.358915 -0.761020 0.663840 0.705080 0.095840 
-0.189880 17.360440 -1.564770 -5.022697 21.056507 7.564552 -15.047183 12.522692 2.185056 -0.763683 -1.183226 -12.995132 -0.327675 4.180211 15.212324 -0.989920 4.367122 3.621297 -0.476570 -0.789970 -0.798850 18.567115 -10.705541 3.348825 -2.714985 3.257575 -22.565998 9.489282 -2.682342 -1.115821 0.542111 -3.321323 3.587647 -0.006250 1.602470 0.206520 -4.509534 0.140999 -6.605581 11.528993 0.724251 0.256443 -3.058550 -0.250844 13.092095 1.686042 1.459635 -6.540367 2.190636 -3.728992 25.790402 -5.489380 -6.523660 11.021320 -3.732197 8.920319 1.149959 -30.050595 4.650560 0.681069 -72.573334 -59.146706 41.049117 -4.602691 3.829002 -0.168250 1.095970 -1.079970 0.316610 1.025428 -10.148887 4.384143 34.678667 -1.717598 3.572799 164.114485 55.379796 138.853180 1.296470 -2.358124 -0.750470 0.647810 0.709040 0.083390 
-0.258420 17.290530 -1.573130 -4.832004 20.175953 7.416482 -15.071837 12.616035 2.226349 -0.888899 -1.078687 -12.240877 -0.065486 4.036152 14.346887 -1.061494 4.372612 3.605892 -0.473480 -0.798180 -0.745140 18.530415 -10.714558 3.265913 -3.438274 3.085396 -22.497468 9.311391 -2.938880 0.290942 0.541893 -3.305689 3.559648 0.008000 1.580150 0.211890 -4.413852 -0.062396 -6.583612 11.014479 0.767142 0.582835 -2.117651 -0.254412 12.820242 1.430000 1.421288 -6.357277 2.020636 -3.588513 25.797675 -6.143950 -5.803560 10.022790 -4.782118 8.281359 1.088982 -26.888292 4.336528 1.909699 -78.777316 -60.312490 46.440209 -4.678042 3.765635 -0.122750 1.095330 -1.059350 0.272820 2.571155 -9.580857 3.973172 32.447892 -2.102445 2.546542 167.911006 57.014832 147.074753 1.269138 -2.297477 -0.778040 0.668600 0.733810 0.039590 
-0.324240 17.224440 -1.567480 -4.793598 19.760969 7.247683 -15.088480 12.739802 2.264830 -0.853930 -1.177878 -12.461482 0.560029 3.914674 14.688736 -1.177616 4.462885 3.576937 -0.518400 -0.872530 -0.744190 18.491755 -10.787060 3.146502 -3.977751 2.859034 -22.145297 9.410619 -3.468421 2.980136 0.568833 -3.339429 3.537667 0.015030 1.628440 0.188250 -4.342447 -0.249962 -6.531270 10.708250 0.636086 0.958095 -1.314595 -0.321692 12.292794 1.001711 1.288857 -6.077591 1.778246 -3.402556 25.270037 -5.782050 -5.847830 8.944190 -5.634900 7.949174 1.152932 -24.786382 4.363981 2.984449 -86.571394 -62.548395 54.170689 -4.795183 3.629557 -0.062180 1.110670 -1.083010 0.234470 4.249505 -9.216651 3.320315 31.175602 -2.523656 0.699338 168.690839 60.810771 150.927175 1.211855 -2.150499 -0.866580 0.758420 0.804710 0.000230 
-0.384140 17.178350 -1.553060 -4.883800 19.401562 7.328140 -15.085897 12.821774 2.297679 -0.334331 -1.514235 -14.191707 0.327645 4.225190 17.008922 -1.126278 4.552971 3.555694 -0.498200 -0.805600 -0.735260 18.463264 -10.946799 3.011357 -4.329012 2.696531 -22.213153 9.847695 -4.329205 7.514177 0.575022 -3.518620 3.500952 0.047730 1.643310 0.161040 -4.312297 -0.228483 -6.440017 10.413618 0.572170 0.922215 -0.696163 -0.418390 11.734564 0.948745 1.815343 -5.894404 2.795756 -3.765536 24.149455 -6.321330 -5.095930 9.447640 -5.906787 7.997238 1.287929 -24.283413 4.076822 3.639070 -93.186338 -64.173948 61.214892 -4.847593 3.592701 -0.131680 1.146900 -1.099980 0.263070 4.649841 -9.654402 2.767501 32.710290 -2.373660 -0.960757 166.301917 65.881019 150.186296 1.168773 -2.108211 -0.853590 0.769590 0.749740 0.019350 
-0.452050 17.171350 -1.551110 -4.484894 18.771832 7.148958 -15.104208 12.895610 2.464640 -0.355643 -2.400181 -17.667674 0.329195 4.838093 22.598725 -1.015518 4.969101 3.363638 -0.497720 -0.789850 -0.728620 18.414888 -11.077228 2.830662 -4.805843 2.552445 -22.336311 9.655733 -5.551791 13.924461 0.528935 -3.869807 3.354440 0.031320 1.607890 0.156640 -4.220117 -0.347710 -6.429513 9.628386 0.617322 1.837559 0.108605 -0.223145 10.439071 0.755111 1.907623 -5.522926 2.922850 -3.883893 23.914970 -6.720520 -4.256890 10.056200 -7.398231 7.641937 1.152605 -24.654866 2.668102 3.945521 -95.608701 -66.194985 65.477783 -4.869160 3.527606 -0.143000 1.132280 -1.079660 0.269760 6.473980 -9.221290 2.147423 33.819795 -2.613760 -3.709891 158.428607 71.457348 143.140425 1.156846 -1.908752 -0.829110 0.730550 0.716640 0.022950 
-0.518990 17.191430 -1.570730 -3.559141 18.184583 6.492446 -15.139144 12.787037 2.880588 -0.828183 -4.135694 -22.189761 0.467223 5.769824 31.048376 -0.792464 5.936384 2.917985 -0.443970 -0.734060 -0.637900 18.375189 -11.116747 2.622684 -5.481924 2.276736 -21.685562 8.948351 -6.687956 19.608868 0.384119 -4.255221 3.195532 -0.002390 1.457830 0.135410 -4.109047 -0.448424 -6.653219 8.794989 0.707268 4.190114 0.309610 0.246151 9.021032 0.749756 1.961487 -5.363364 2.743262 -4.322298 25.364323 -6.442640 -3.976290 8.407300 -8.717960 6.743408 1.191595 -26.539797 0.887229 3.582270 -96.429597 -68.831956 68.485234 -4.793584 3.309055 -0.030470 1.006760 -0.949530 0.250380 7.724444 -8.036014 1.649518 36.700296 -2.795380 -9.009477 129.811267 76.245832 113.042046 1.246853 -0.424037 -0.781490 0.709800 0.661700 -0.008310 
-0.580400 17.217320 -1.615360 -3.705498 16.226523 5.084725 -15.095824 12.538852 3.446602 0.326996 -5.977290 -26.801612 -0.665225 7.443255 39.208063 -0.493880 7.280953 2.316710 -0.382170 -0.702090 -0.547850 18.417080 -11.143338 2.477666 -4.642130 2.328719 -20.743619 6.859660 -7.342703 25.367462 0.183637 -4.626328 3.006601 -0.069850 1.243200 0.127170 -4.209926 -0.325938 -7.126266 10.689141 0.616495 8.193346 -1.039977 1.056615 7.615506 0.629704 1.096144 -6.259406 1.082511 -3.879750 27.535056 -5.141460 -3.664480 5.954970 -9.220218 6.675470 0.804216 -30.688476 -1.129296 3.020097 -96.917468 -72.051040 71.233412 -4.630297 3.052466 0.159300 0.803440 -0.780990 0.215170 8.019667 -7.113501 3.316678 40.822448 -0.303395 -3.030709 52.297402 89.188297 40.618866 1.786227 -1.729217 -0.721210 0.635140 0.621400 -0.058050 
